<svg xmlns="http://www.w3.org/2000/svg" viewBox="0 0 100 100">
  <g id="element-earth">
    <path id="earth-triangle" d="M15.2 14.8c-2.2-.2-3.2 2-2.2 3.8l33.5 68.2c.8 1.6 2.2 2.8 4 2.7 1.8 0 3.2-1.1 4-2.7l32.8-67.5c1.2-2.5-.5-4.8-2.8-5.2-15-1.5-54.2-1.2-69.3.7z M23.5 22.5c18-.8 40-.8 54.5.5L50.5 78.5 23.5 22.5z" fill="currentColor"/>

    <path id="earth-stroke" d="M13.5 48.5c18-1.8 48-1.2 74.5 2.2 2.8.4 2.8 4.2-0.5 3.8-22-2.8-52-2.5-74.5-.5-2.8.2-2.5-5.2.5-5.5z" fill="currentColor"/>
  </g>
</svg>
